<?xml version="1.0" encoding="UTF-8" standalone="no"?>
<!-- Created with Inkscape (http://www.inkscape.org/) -->

<svg
   version="1.1"
   id="svg2"
   width="727.07147"
   height="152"
   viewBox="0 0 727.07147 152"
   sodipodi:docname="logo_razen_VECTOR.ai"
   xmlns:inkscape="http://www.inkscape.org/namespaces/inkscape"
   xmlns:sodipodi="http://sodipodi.sourceforge.net/DTD/sodipodi-0.dtd"
   xmlns="http://www.w3.org/2000/svg"
   xmlns:svg="http://www.w3.org/2000/svg">
  <defs
     id="defs6">
    <clipPath
       clipPathUnits="userSpaceOnUse"
       id="clipPath16">
      <path
         d="M 0,792 H 1224 V 0 H 0 Z"
         id="path14" />
    </clipPath>
  </defs>
  <sodipodi:namedview
     id="namedview4"
     pagecolor="#ffffff"
     bordercolor="#000000"
     borderopacity="0.25"
     inkscape:showpageshadow="2"
     inkscape:pageopacity="0.0"
     inkscape:pagecheckerboard="0"
     inkscape:deskcolor="#d1d1d1" />
  <g
     id="g8"
     inkscape:groupmode="layer"
     inkscape:label="logo_razen_VECTOR"
     transform="matrix(1.3333333,0,0,-1.3333333,-452.35452,631.94785)">
    <g
       id="g10">
      <g
         id="g12"
         clip-path="url(#clipPath16)">
        <g
           id="g18"
           transform="translate(710.6582,330.1338)">
          <path
             d="M 0,0 C 0,1.195 -0.279,2.068 -0.836,2.619 -1.394,3.17 -2.118,3.445 -3.01,3.445 h -2.257 v -7.086 h 2.257 c 0.892,0 1.616,0.303 2.174,0.911 C -0.279,-2.124 0,-1.214 0,0 m 2.521,0.028 c 0,-0.952 -0.141,-1.793 -0.42,-2.52 C 1.82,-3.221 1.442,-3.823 0.966,-4.299 0.489,-4.775 -0.052,-5.135 -0.658,-5.378 -1.266,-5.62 -1.905,-5.742 -2.577,-5.742 h -2.69 v -8.487 h -2.52 V 5.603 h 5.027 c 0.599,0 1.212,-0.089 1.84,-0.267 C -0.293,5.158 0.273,4.855 0.779,4.426 1.284,3.996 1.701,3.422 2.029,2.703 2.356,1.984 2.521,1.093 2.521,0.028"
             style="fill:#2a343f;fill-opacity:1;fill-rule:nonzero;stroke:none"
             id="path20" />
        </g>
        <g
           id="g22"
           transform="translate(725.9785,330.2324)">
          <path
             d="M 0,0 C 0,0.675 -0.094,1.228 -0.279,1.659 -0.467,2.09 -0.71,2.437 -1.008,2.699 -1.307,2.962 -1.652,3.145 -2.044,3.248 -2.437,3.352 -2.829,3.403 -3.221,3.403 h -2.268 v -6.919 h 2.324 c 0.953,0 1.718,0.305 2.297,0.914 C -0.289,-1.992 0,-1.125 0,0 m 0.168,-14.327 -3.36,8.85 h -2.297 v -8.85 H -7.954 V 5.504 h 5.139 c 0.73,0 1.419,-0.099 2.064,-0.295 C -0.104,5.014 0.462,4.7 0.948,4.271 1.435,3.842 1.818,3.281 2.1,2.591 2.381,1.899 2.521,1.068 2.521,0.098 2.521,-0.705 2.417,-1.405 2.209,-2.003 2.001,-2.601 1.732,-3.109 1.401,-3.529 1.07,-3.95 0.708,-4.281 0.312,-4.524 -0.082,-4.767 -0.467,-4.926 -0.84,-5 l 3.726,-9.327 z"
             style="fill:#2a343f;fill-opacity:1;fill-rule:nonzero;stroke:none"
             id="path24" />
        </g>
        <g
           id="g26"
           transform="translate(743.709,325.8486)">
          <path
             d="m 0,0 c 0,1.12 -0.089,2.175 -0.267,3.165 -0.177,0.989 -0.438,1.849 -0.784,2.577 -0.345,0.728 -0.774,1.302 -1.288,1.723 -0.514,0.42 -1.106,0.63 -1.778,0.63 -0.692,0 -1.299,-0.21 -1.821,-0.63 C -6.461,7.044 -6.896,6.47 -7.24,5.742 -7.587,5.014 -7.843,4.154 -8.011,3.165 -8.179,2.175 -8.263,1.12 -8.263,0 c 0,-1.12 0.084,-2.176 0.252,-3.165 0.168,-0.99 0.424,-1.849 0.771,-2.577 0.344,-0.729 0.779,-1.303 1.302,-1.723 0.522,-0.42 1.129,-0.63 1.821,-0.63 0.672,0 1.264,0.21 1.778,0.63 0.514,0.42 0.943,0.994 1.288,1.723 0.346,0.728 0.607,1.587 0.784,2.577 C -0.089,-2.176 0,-1.12 0,0 M 2.661,0 C 2.661,-1.551 2.507,-2.965 2.198,-4.243 1.891,-5.522 1.442,-6.62 0.854,-7.535 0.266,-8.45 -0.444,-9.159 -1.274,-9.663 c -0.831,-0.505 -1.779,-0.757 -2.843,-0.757 -1.065,0 -2.018,0.252 -2.858,0.757 -0.839,0.504 -1.554,1.213 -2.142,2.128 -0.588,0.915 -1.036,2.013 -1.345,3.292 -0.308,1.278 -0.462,2.692 -0.462,4.243 0,1.55 0.15,2.964 0.448,4.243 0.298,1.279 0.738,2.371 1.317,3.278 0.578,0.905 1.293,1.605 2.142,2.1 0.85,0.495 1.816,0.742 2.9,0.742 1.064,0 2.012,-0.247 2.843,-0.742 0.83,-0.495 1.54,-1.195 2.128,-2.1 C 1.442,6.614 1.891,5.522 2.198,4.243 2.507,2.964 2.661,1.55 2.661,0"
             style="fill:#2a343f;fill-opacity:1;fill-rule:nonzero;stroke:none"
             id="path28" />
        </g>
        <g
           id="g30"
           transform="translate(761.1865,325.792)">
          <path
             d="M 0,0 C 0,1.308 -0.125,2.446 -0.377,3.418 -0.628,4.389 -0.972,5.191 -1.408,5.826 -1.846,6.461 -2.366,6.937 -2.971,7.255 -3.575,7.572 -4.222,7.731 -4.91,7.731 H -6.946 V -7.674 h 2.036 c 0.688,0 1.335,0.158 1.939,0.476 0.605,0.317 1.125,0.794 1.563,1.428 0.436,0.635 0.78,1.433 1.031,2.395 C -0.125,-2.413 0,-1.288 0,0 m 2.521,0 c 0,-3.212 -0.654,-5.662 -1.96,-7.353 -1.308,-1.689 -3.137,-2.534 -5.491,-2.534 H -9.467 V 9.944 h 4.566 c 2.352,0 4.177,-0.85 5.475,-2.548 C 1.872,5.695 2.521,3.23 2.521,0"
             style="fill:#2a343f;fill-opacity:1;fill-rule:nonzero;stroke:none"
             id="path32" />
        </g>
        <g
           id="g34"
           transform="translate(780.2617,319.8828)">
          <path
             d="M 0,0 C -0.206,-0.878 -0.542,-1.648 -1.009,-2.312 -1.476,-2.975 -2.087,-3.497 -2.844,-3.88 -3.6,-4.263 -4.528,-4.454 -5.63,-4.454 c -1.102,0 -2.021,0.191 -2.76,0.574 -0.737,0.383 -1.339,0.905 -1.806,1.568 -0.467,0.664 -0.798,1.434 -0.994,2.312 -0.197,0.877 -0.294,1.82 -0.294,2.828 v 13.026 h 2.52 V 3.081 c 0,-0.673 0.052,-1.321 0.154,-1.947 0.103,-0.626 0.281,-1.181 0.533,-1.666 0.252,-0.487 0.597,-0.873 1.036,-1.163 0.438,-0.289 0.995,-0.434 1.667,-0.434 0.672,0 1.222,0.145 1.652,0.434 0.43,0.29 0.771,0.676 1.023,1.163 0.252,0.485 0.429,1.04 0.532,1.666 0.102,0.626 0.154,1.274 0.154,1.947 V 15.854 H 0.308 V 2.828 C 0.308,1.82 0.205,0.877 0,0"
             style="fill:#2a343f;fill-opacity:1;fill-rule:nonzero;stroke:none"
             id="path36" />
        </g>
        <g
           id="g38"
           transform="translate(795.5264,316.1436)">
          <path
             d="m 0,0 c -0.784,-0.477 -1.736,-0.715 -2.856,-0.715 -1.103,0 -2.092,0.262 -2.97,0.784 -0.878,0.523 -1.615,1.251 -2.213,2.185 -0.598,0.934 -1.055,2.031 -1.372,3.292 -0.318,1.26 -0.477,2.637 -0.477,4.131 0,1.494 0.164,2.876 0.491,4.145 0.327,1.27 0.793,2.367 1.4,3.291 0.607,0.925 1.345,1.649 2.213,2.171 0.868,0.523 1.844,0.784 2.928,0.784 1.007,0 1.932,-0.196 2.772,-0.588 0.841,-0.392 1.531,-0.99 2.073,-1.793 L 0.42,15.979 c -0.41,0.597 -0.887,1.041 -1.428,1.331 -0.542,0.289 -1.121,0.434 -1.737,0.434 -0.766,0 -1.428,-0.215 -1.988,-0.644 C -5.294,16.67 -5.756,16.091 -6.12,15.363 -6.484,14.635 -6.76,13.78 -6.946,12.8 -7.133,11.819 -7.227,10.778 -7.227,9.677 c 0,-1.102 0.094,-2.138 0.281,-3.11 0.186,-0.97 0.467,-1.825 0.841,-2.562 0.373,-0.738 0.843,-1.321 1.414,-1.751 0.569,-0.43 1.236,-0.644 2.003,-0.644 0.69,0 1.301,0.187 1.834,0.56 0.532,0.374 0.957,0.831 1.274,1.373 L 1.933,1.891 C 1.429,1.105 0.784,0.476 0,0"
             style="fill:#2a343f;fill-opacity:1;fill-rule:nonzero;stroke:none"
             id="path40" />
        </g>
        <g
           id="g42"
           transform="translate(810.6523,316.1436)">
          <path
             d="m 0,0 c -0.785,-0.477 -1.737,-0.715 -2.857,-0.715 -1.102,0 -2.092,0.262 -2.969,0.784 -0.878,0.523 -1.615,1.251 -2.213,2.185 -0.598,0.934 -1.056,2.031 -1.373,3.292 -0.317,1.26 -0.476,2.637 -0.476,4.131 0,1.494 0.163,2.876 0.491,4.145 0.326,1.27 0.793,2.367 1.4,3.291 0.606,0.925 1.345,1.649 2.213,2.171 0.868,0.523 1.844,0.784 2.927,0.784 1.008,0 1.932,-0.196 2.773,-0.588 0.84,-0.392 1.53,-0.99 2.072,-1.793 L 0.42,15.979 c -0.411,0.597 -0.888,1.041 -1.429,1.331 -0.542,0.289 -1.12,0.434 -1.736,0.434 -0.767,0 -1.429,-0.215 -1.989,-0.644 -0.56,-0.43 -1.023,-1.009 -1.386,-1.737 -0.364,-0.728 -0.641,-1.583 -0.827,-2.563 -0.187,-0.981 -0.28,-2.022 -0.28,-3.123 0,-1.102 0.093,-2.138 0.28,-3.11 0.186,-0.97 0.467,-1.825 0.841,-2.562 0.373,-0.738 0.844,-1.321 1.414,-1.751 0.569,-0.43 1.237,-0.644 2.003,-0.644 0.69,0 1.302,0.187 1.835,0.56 0.532,0.374 0.956,0.831 1.274,1.373 L 1.933,1.891 C 1.428,1.105 0.784,0.476 0,0"
             style="fill:#2a343f;fill-opacity:1;fill-rule:nonzero;stroke:none"
             id="path44" />
        </g>
        <path
           d="m 817.094,335.736 h 2.521 v -19.831 h -2.521 z"
           style="fill:#2a343f;fill-opacity:1;fill-rule:nonzero;stroke:none"
           id="path46" />
        <g
           id="g48"
           transform="translate(835.8887,325.8486)">
          <path
             d="m 0,0 c 0,1.12 -0.089,2.175 -0.267,3.165 -0.177,0.989 -0.438,1.849 -0.784,2.577 -0.345,0.728 -0.775,1.302 -1.288,1.723 -0.515,0.42 -1.106,0.63 -1.779,0.63 -0.691,0 -1.298,-0.21 -1.82,-0.63 C -6.462,7.044 -6.896,6.47 -7.241,5.742 -7.587,5.014 -7.843,4.154 -8.012,3.165 -8.18,2.175 -8.264,1.12 -8.264,0 c 0,-1.12 0.084,-2.176 0.252,-3.165 0.169,-0.99 0.425,-1.849 0.771,-2.577 0.345,-0.729 0.779,-1.303 1.303,-1.723 0.522,-0.42 1.129,-0.63 1.82,-0.63 0.673,0 1.264,0.21 1.779,0.63 0.513,0.42 0.943,0.994 1.288,1.723 0.346,0.728 0.607,1.587 0.784,2.577 C -0.089,-2.176 0,-1.12 0,0 M 2.66,0 C 2.66,-1.551 2.507,-2.965 2.198,-4.243 1.891,-5.522 1.442,-6.62 0.854,-7.535 0.266,-8.45 -0.444,-9.159 -1.274,-9.663 c -0.832,-0.505 -1.78,-0.757 -2.844,-0.757 -1.065,0 -2.017,0.252 -2.857,0.757 -0.84,0.504 -1.554,1.213 -2.142,2.128 -0.589,0.915 -1.037,2.013 -1.345,3.292 -0.309,1.278 -0.462,2.692 -0.462,4.243 0,1.55 0.149,2.964 0.447,4.243 0.299,1.279 0.739,2.371 1.318,3.278 0.578,0.905 1.292,1.605 2.142,2.1 0.85,0.495 1.816,0.742 2.899,0.742 1.064,0 2.012,-0.247 2.844,-0.742 0.83,-0.495 1.54,-1.195 2.128,-2.1 C 1.442,6.614 1.891,5.522 2.198,4.243 2.507,2.964 2.66,1.55 2.66,0"
             style="fill:#2a343f;fill-opacity:1;fill-rule:nonzero;stroke:none"
             id="path50" />
        </g>
        <g
           id="g52"
           transform="translate(852.6377,315.9053)">
          <path
             d="M 0,0 -6.33,15.377 H -6.414 V 0 h -2.324 v 19.831 h 3.024 L 0.532,4.426 H 0.616 V 19.831 H 2.941 V 0 Z"
             style="fill:#2a343f;fill-opacity:1;fill-rule:nonzero;stroke:none"
             id="path54" />
        </g>
        <g
           id="g56"
           transform="translate(861.7969,315.9053)">
          <path
             d="M 0,0 V 19.831 H 8.348 V 17.59 H 2.438 V 11.344 H 7.955 V 9.243 H 2.438 V 2.269 H 8.627 V 0 Z"
             style="fill:#2a343f;fill-opacity:1;fill-rule:nonzero;stroke:none"
             id="path58" />
        </g>
        <g
           id="g60"
           transform="translate(884.541,321.1709)">
          <path
             d="M 0,0 C 0,-0.896 -0.14,-1.704 -0.42,-2.423 -0.7,-3.142 -1.078,-3.744 -1.555,-4.229 -2.03,-4.715 -2.596,-5.089 -3.249,-5.35 -3.903,-5.611 -4.604,-5.742 -5.35,-5.742 c -1.008,0 -1.965,0.21 -2.871,0.63 -0.906,0.421 -1.63,0.975 -2.171,1.667 l 1.485,1.82 c 0.429,-0.56 0.967,-0.999 1.61,-1.316 0.645,-0.318 1.293,-0.476 1.947,-0.476 0.84,0 1.531,0.28 2.073,0.84 0.542,0.56 0.812,1.373 0.812,2.437 0,0.504 -0.084,0.948 -0.252,1.33 -0.168,0.383 -0.401,0.729 -0.7,1.037 -0.299,0.308 -0.64,0.587 -1.022,0.84 -0.383,0.252 -0.798,0.491 -1.247,0.714 -0.542,0.262 -1.05,0.556 -1.527,0.883 -0.475,0.326 -0.9,0.704 -1.274,1.134 -0.373,0.43 -0.667,0.938 -0.882,1.526 -0.215,0.589 -0.322,1.284 -0.322,2.087 0,0.952 0.149,1.783 0.448,2.493 0.299,0.709 0.695,1.298 1.19,1.765 0.494,0.467 1.06,0.812 1.695,1.036 0.634,0.225 1.279,0.336 1.932,0.336 0.953,0 1.807,-0.158 2.564,-0.476 0.756,-0.318 1.385,-0.794 1.89,-1.428 l -1.512,-1.793 c -0.71,0.933 -1.662,1.4 -2.858,1.4 -0.354,0 -0.705,-0.06 -1.05,-0.181 -0.345,-0.123 -0.658,-0.318 -0.938,-0.588 -0.28,-0.272 -0.504,-0.613 -0.672,-1.023 -0.169,-0.411 -0.253,-0.906 -0.253,-1.485 0,-0.504 0.08,-0.938 0.238,-1.302 0.159,-0.364 0.373,-0.691 0.645,-0.98 C -6.102,6.895 -5.789,6.634 -5.434,6.4 -5.079,6.167 -4.696,5.947 -4.285,5.742 -3.763,5.48 -3.249,5.187 -2.745,4.859 -2.241,4.533 -1.783,4.146 -1.372,3.697 -0.962,3.249 -0.63,2.722 -0.378,2.114 -0.126,1.508 0,0.803 0,0"
             style="fill:#2a343f;fill-opacity:1;fill-rule:nonzero;stroke:none"
             id="path62" />
        </g>
        <g
           id="g64"
           transform="translate(632.9902,473.9609)">
          <path
             d="m 0,0 h -55.843 v -16.32 h 35.805 l -35.789,-68.578 -0.016,-22.113 h 0.009 z"
             style="fill:#33647f;fill-opacity:1;fill-rule:nonzero;stroke:none"
             id="path66" />
        </g>
        <g
           id="g68"
           transform="translate(383.2969,440.7158)">
          <path
             d="m 0,0 c 0,3.406 -0.465,6.229 -1.395,8.464 -0.929,2.236 -2.144,3.994 -3.641,5.272 -1.498,1.277 -3.175,2.182 -5.035,2.715 -1.859,0.532 -3.717,0.799 -5.576,0.799 h -10.534 v -34.82 h 10.534 c 4.544,0 8.287,1.463 11.231,4.393 C -1.473,-10.249 0,-5.856 0,0 m 1.225,-79.704 -17.032,48.108 h -10.374 v -48.108 h -17.85 V 33.245 h 31.197 c 4.53,0 8.699,-0.613 12.508,-1.836 3.808,-1.222 7.077,-3.164 9.807,-5.823 2.728,-2.659 4.864,-6.008 6.41,-10.049 1.543,-4.041 2.316,-8.882 2.316,-14.518 0,-4.36 -0.541,-8.217 -1.621,-11.566 -1.083,-3.351 -2.445,-6.196 -4.091,-8.536 -1.647,-2.339 -3.473,-4.228 -5.479,-5.664 -2.009,-1.436 -3.989,-2.42 -5.945,-2.95 l 19.587,-52.007 z"
             style="fill:#33647f;fill-opacity:1;fill-rule:nonzero;stroke:none"
             id="path70" />
        </g>
        <g
           id="g72"
           transform="translate(492.7573,455.9976)">
          <path
             d="m 0,0 h -0.617 l -11.877,-56.106 h 24.061 z m 19.278,-94.986 -5.398,23.869 h -28.687 l -5.552,-23.869 H -38.866 L -11.722,17.963 H 11.874 L 38.557,-94.986 Z"
             style="fill:#33647f;fill-opacity:1;fill-rule:nonzero;stroke:none"
             id="path74" />
        </g>
        <g
           id="g76"
           transform="translate(702.8711,361.0117)">
          <path
             d="M 0,0 V 112.949 H 48.884 V 96.093 H 17.731 V 66.072 H 46.57 V 50.446 H 17.731 V 17.103 H 50.427 V 0 Z"
             style="fill:#849fb0;fill-opacity:1;fill-rule:nonzero;stroke:none"
             id="path78" />
        </g>
        <g
           id="g80"
           transform="translate(864.1895,361.0117)">
          <path
             d="m 0,0 -31.029,79.768 h -0.428 L -31.148,0 h -16.661 v 112.949 h 21.107 L 3.957,32.705 H 4.469 L 4.314,112.949 H 20.38 V 0 Z"
             style="fill:#849fb0;fill-opacity:1;fill-rule:nonzero;stroke:none"
             id="path82" />
        </g>
        <g
           id="g84"
           transform="translate(579.9355,361.0117)">
          <path
             d="M 0,0 H 55.843 V 16.319 H 20.038 l 35.789,68.579 0.016,22.113 h -0.009 z"
             style="fill:#849fb0;fill-opacity:1;fill-rule:nonzero;stroke:none"
             id="path86" />
        </g>
      </g>
    </g>
  </g>
</svg>
